<svg width="100" height="100" viewBox="0 0 100 100" fill="none" xmlns="http://www.w3.org/2000/svg">
<path d="M50.5196 0.00270094C40.6302 -0.100073 30.9325 2.73227 22.6529 8.1415C14.3733 13.5507 7.88391 21.2938 4.00538 30.3915C0.126843 39.4892 -0.966558 49.5328 0.863464 59.2519C2.69349 68.9711 7.36472 77.9292 14.2864 84.9933C21.208 92.0574 30.0691 96.9102 39.749 98.9379C49.4288 100.966 59.4926 100.077 68.6674 96.3846C77.8422 92.6922 85.716 86.3619 91.2928 78.1942C96.8695 70.0266 99.8989 60.3885 99.9976 50.4991C100.128 37.2432 94.9891 24.478 85.7112 15.0091C76.4334 5.54032 63.7755 0.142728 50.5196 0.00270094ZM75.2458 28.0924L74.7494 32.115C74.6913 32.5938 74.4799 33.0409 74.1467 33.3895C73.8134 33.7382 73.3763 33.9696 72.9007 34.0493L63.7257 35.5898V58.5101C63.7268 59.9056 64.0582 61.2812 64.6929 62.5241L70.4016 73.6076C70.5498 73.8994 70.6205 74.2243 70.6069 74.5512C70.5933 74.8782 70.4959 75.1962 70.324 75.4746C70.1522 75.7531 69.9116 75.9826 69.6254 76.1413C69.3392 76.3 69.017 76.3824 68.6898 76.3806H63.8199C63.4686 76.3897 63.1218 76.2998 62.8191 76.1212C62.5165 75.9427 62.2701 75.6826 62.1082 75.3707L56.3738 64.5782C55.6985 63.3111 55.3457 61.8972 55.3468 60.4614V36.9935L42.4573 39.1502V70.9031C42.4541 71.4119 42.326 71.9121 42.0843 72.3598C41.8425 72.8075 41.4945 73.189 41.0708 73.4707L37.5617 75.7987C37.2241 76.023 36.8319 76.1517 36.4269 76.1709C36.0219 76.19 35.6193 76.0991 35.262 75.9077C34.9046 75.7163 34.6058 75.4315 34.3974 75.0838C34.1889 74.736 34.0787 74.3383 34.0783 73.9329V40.5539L24.6638 42.1287C24.3217 42.1831 23.9716 42.1572 23.6413 42.0531C23.3109 41.9489 23.0093 41.7694 22.7603 41.5287C22.5113 41.2879 22.3216 40.9926 22.2064 40.666C22.0911 40.3393 22.0534 39.9904 22.0961 39.6467L22.5926 35.6241C22.6511 35.1441 22.8637 34.696 23.1986 34.3472C23.5335 33.9985 23.9726 33.7677 24.4498 33.6898L72.6953 25.6018C73.0369 25.5501 73.3858 25.5783 73.7147 25.6842C74.0435 25.7901 74.3433 25.9709 74.5905 26.2122C74.8377 26.4536 75.0255 26.749 75.1392 27.0753C75.2529 27.4015 75.2894 27.7497 75.2458 28.0924Z" fill="#D8D8D8"/>
</svg>
